<?xml version="1.0" encoding="UTF-8"?>
<svg version="1.1" xmlns="http://www.w3.org/2000/svg" width="156" height="78">
<path d="M0 0 C0.66 0 1.32 0 2 0 C2.66 4.29 3.32 8.58 4 13 C5.32 11.35 6.64 9.7 8 8 C12.70792636 5.70078015 17.83941952 5.18417294 23 6 C26.0625 8 26.0625 8 28 10 C28.61875 9.2884375 28.61875 9.2884375 29.25 8.5625 C31.25044298 6.7763902 32.33882834 6.2419247 35 6 C36.32 6.66 37.64 7.32 39 8 C39 10.97 39 13.94 39 17 C40.3921875 15.824375 40.3921875 15.824375 41.8125 14.625 C43.83035727 12.92103164 45.78775545 11.4748297 48 10 C48.66 9.34 49.32 8.68 50 8 C52.9612894 6.5193553 55.73085067 6.94162233 59 7 C61.21081851 7.10540926 61.21081851 7.10540926 64 6 C66.68083716 5.85232677 69.31868052 5.76908412 72 5.75 C72.72445312 5.729375 73.44890625 5.70875 74.1953125 5.6875 C79.50090794 5.64834431 79.50090794 5.64834431 81.95703125 7.37890625 C83.14784109 9.22979045 83.62747085 10.83933095 84 13 C85.9957958 13.11211213 85.9957958 13.11211213 87.75 12.375 C90.88468359 11.85255274 93.04874645 12.93252531 96 14 C98.95556001 14.21845198 98.95556001 14.21845198 101.1875 12.9375 C105.12142591 11.62619136 107.93125872 12.31038283 112 13 C114.125 19.625 114.125 19.625 113 23 C112.65179959 24.66362417 112.31595508 26.32995171 112 28 C108.30833366 29.18133323 104.85345749 29.20643522 101 29 C100.01 28.4121875 100.01 28.4121875 99 27.8125 C98.34 27.544375 97.68 27.27625 97 27 C94.66443537 27.99477753 92.33124929 28.99515117 90 30 C86.75 30 86.75 30 84 29 C80.94694559 25.43810319 80.67953422 22.59334282 81 18 C79.02 17.01 77.04 16.02 75 15 C75 18.3 75 21.6 75 25 C75.99 25 76.98 25 78 25 C77.505 27.475 77.505 27.475 77 30 C72.71 30 68.42 30 64 30 C63.67 28.35 63.34 26.7 63 25 C63.66 24.34 64.32 23.68 65 23 C65.40047444 20.67724823 65.7397104 18.34260643 66 16 C63.69 16.33 61.38 16.66 59 17 C59.55312735 21.02992782 60.1558062 25.02022924 61 29 C56.58726961 31.20636519 50.62051694 30.2270958 45.71435547 30.24023438 C43.50840881 30.24996292 41.30338507 30.28099662 39.09765625 30.3125 C37.70052638 30.3190279 36.30338983 30.32427921 34.90625 30.328125 C32.99295898 30.34214355 32.99295898 30.34214355 31.04101562 30.35644531 C29.53571289 30.18000488 29.53571289 30.18000488 28 30 C27.34 29.01 26.68 28.02 26 27 C25.01 27.99 24.02 28.98 23 30 C24.98 30.66 26.96 31.32 29 32 C28.01 32.99 27.02 33.98 26 35 C29.63 37.64 33.26 40.28 37 43 C33.08428299 44.305239 31.96107003 43.32239848 28.3125 41.5625 C27.31863281 41.08941406 26.32476562 40.61632813 25.30078125 40.12890625 C24.54152344 39.75636719 23.78226563 39.38382813 23 39 C23.33 39.99 23.66 40.98 24 42 C22.68 41.67 21.36 41.34 20 41 C20.433125 41.84304687 20.86625 42.68609375 21.3125 43.5546875 C21.869375 44.65039062 22.42625 45.74609375 23 46.875 C23.556875 47.96554688 24.11375 49.05609375 24.6875 50.1796875 C26 53 26 53 26 55 C22.16013793 53.72004598 21.51848751 52.01821604 19.4765625 48.69140625 C17.75719006 46.46284179 17.75719006 46.46284179 13 45 C13 49.62 13 54.24 13 59 C11 57 11 57 10.8046875 55.0546875 C10.86979167 53.03645833 10.93489583 51.01822917 11 49 C10.01 48.67 9.02 48.34 8 48 C8 47.34 8 46.68 8 46 C7.34 46 6.68 46 6 46 C5.9175 46.680625 5.835 47.36125 5.75 48.0625 C4.77667472 51.8746907 3.04192545 54.64070329 1 58 C-0.24697084 54.39763981 0.37036086 51.69912993 1 48 C0.67 47.01 0.34 46.02 0 45 C-3.3 47.97 -6.6 50.94 -10 54 C-10.33 53.34 -10.66 52.68 -11 52 C-10.65066406 51.55269531 -10.30132812 51.10539062 -9.94140625 50.64453125 C-9.48636719 50.03996094 -9.03132813 49.43539062 -8.5625 48.8125 C-8.11003906 48.22082031 -7.65757813 47.62914062 -7.19140625 47.01953125 C-5.81927363 44.69365399 -5.39891843 42.65487095 -5 40 C-6.26457031 40.54140625 -6.26457031 40.54140625 -7.5546875 41.09375 C-8.65039062 41.5578125 -9.74609375 42.021875 -10.875 42.5 C-11.96554688 42.9640625 -13.05609375 43.428125 -14.1796875 43.90625 C-17 45 -17 45 -19 45 C-18 42 -18 42 -15.0625 40.5 C-14.051875 40.005 -13.04125 39.51 -12 39 C-11.34 38.01 -10.68 37.02 -10 36 C-14.29 35.67 -18.58 35.34 -23 35 C-23 34.34 -23 33.68 -23 33 C-22.07767578 32.80083984 -22.07767578 32.80083984 -21.13671875 32.59765625 C-20.32847656 32.42105469 -19.52023438 32.24445312 -18.6875 32.0625 C-17.88699219 31.88847656 -17.08648437 31.71445312 -16.26171875 31.53515625 C-13.854599 31.00113841 -13.854599 31.00113841 -11 30 C-11 29.34 -11 28.68 -11 28 C-11.86625 27.896875 -12.7325 27.79375 -13.625 27.6875 C-17.16683123 26.96601586 -19.84312042 25.72876739 -23 24 C-22.67 23.34 -22.34 22.68 -22 22 C-21.0925 22.185625 -20.185 22.37125 -19.25 22.5625 C-16.24339146 22.96723576 -14.8119538 22.82524731 -12 22 C-12.6496875 21.37351562 -13.299375 20.74703125 -13.96875 20.1015625 C-14.8040625 19.28429687 -15.639375 18.46703125 -16.5 17.625 C-17.3353125 16.81289063 -18.170625 16.00078125 -19.03125 15.1640625 C-21 13 -21 13 -21 11 C-18.65720173 12.17139913 -16.32334276 13.35242565 -14 14.5625 C-11.56916149 15.72727679 -9.59025692 16.41384272 -7 17 C-7.30035156 16.32453125 -7.60070313 15.6490625 -7.91015625 14.953125 C-8.29042969 14.06109375 -8.67070312 13.1690625 -9.0625 12.25 C-9.44535156 11.36828125 -9.82820313 10.4865625 -10.22265625 9.578125 C-11.04600008 6.84743691 -10.9773992 5.63098653 -10 3 C-6 8.75 -6 8.75 -6 11 C-5.071875 11.4640625 -5.071875 11.4640625 -4.125 11.9375 C-2.75 12.625 -1.375 13.3125 0 14 C0 9.38 0 4.76 0 0 Z M27 12 C27.33 12.99 27.66 13.98 28 15 C28 14.01 28 13.02 28 12 C27.67 12 27.34 12 27 12 Z M15 13 C13.64381501 14.12534105 13.64381501 14.12534105 13.9375 17.0625 C13.958125 18.031875 13.97875 19.00125 14 20 C14.33 19.34 14.66 18.68 15 18 C17.64 18 20.28 18 23 18 C22.01 17.67 21.02 17.34 20 17 C18.8125 14.9375 18.8125 14.9375 18 13 C17.01 13 16.02 13 15 13 Z M104 18 C104.33 18.99 104.66 19.98 105 21 C105 20.01 105 19.02 105 18 C104.67 18 104.34 18 104 18 Z M106 20 C106 20.66 106 21.32 106 22 C106.66 21.67 107.32 21.34 108 21 C107.34 20.67 106.68 20.34 106 20 Z M48 21 C48.66 21.66 49.32 22.32 50 23 C50 22.34 50 21.68 50 21 C49.34 21 48.68 21 48 21 Z M29 22 C28.34 23.32 27.68 24.64 27 26 C27.99 25.34 28.98 24.68 30 24 C29.67 23.34 29.34 22.68 29 22 Z M2 24 C-0.28992684 26.81532057 -0.28992684 26.81532057 0.0625 30 C0.75812746 33.13087023 0.75812746 33.13087023 3.25 35 C5.97086079 36.27973643 5.97086079 36.27973643 8.75 35.3125 C11.12775858 34.20052397 11.12775858 34.20052397 12 32 C12.99 31.34 13.98 30.68 15 30 C14.43410156 29.81824219 13.86820313 29.63648438 13.28515625 29.44921875 C12.55167969 29.19785156 11.81820312 28.94648437 11.0625 28.6875 C10.33160156 28.44386719 9.60070312 28.20023438 8.84765625 27.94921875 C7 27 7 27 6 24 C4.68 24 3.36 24 2 24 Z M16 30 C20 31 20 31 20 31 Z " fill="#1D1655" transform="translate(30,9)"/>
<path d="M0 0 C1.051875 0.5878125 1.051875 0.5878125 2.125 1.1875 C2.125 4.1575 2.125 7.1275 2.125 10.1875 C3.053125 9.40375 3.98125 8.62 4.9375 7.8125 C6.95535727 6.10853164 8.91275545 4.6623297 11.125 3.1875 C11.785 2.5275 12.445 1.8675 13.125 1.1875 C16.0862894 -0.2931447 18.85585067 0.12912233 22.125 0.1875 C24.33581851 0.29290926 24.33581851 0.29290926 27.125 -0.8125 C29.80583716 -0.96017323 32.44368052 -1.04341588 35.125 -1.0625 C35.84945312 -1.083125 36.57390625 -1.10375 37.3203125 -1.125 C42.62590794 -1.16415569 42.62590794 -1.16415569 45.08203125 0.56640625 C46.27284109 2.41729045 46.75247085 4.02683095 47.125 6.1875 C49.1207958 6.29961213 49.1207958 6.29961213 50.875 5.5625 C54.00968359 5.04005274 56.17374645 6.12002531 59.125 7.1875 C62.08056001 7.40595198 62.08056001 7.40595198 64.3125 6.125 C68.24642591 4.81369136 71.05625872 5.49788283 75.125 6.1875 C77.25 12.8125 77.25 12.8125 76.125 16.1875 C75.77679959 17.85112417 75.44095508 19.51745171 75.125 21.1875 C71.43333366 22.36883323 67.97845749 22.39393522 64.125 22.1875 C63.135 21.5996875 63.135 21.5996875 62.125 21 C61.465 20.731875 60.805 20.46375 60.125 20.1875 C57.78943537 21.18227753 55.45624929 22.18265117 53.125 23.1875 C49.875 23.1875 49.875 23.1875 47.125 22.1875 C44.07194559 18.62560319 43.80453422 15.78084282 44.125 11.1875 C42.145 10.1975 40.165 9.2075 38.125 8.1875 C38.125 11.4875 38.125 14.7875 38.125 18.1875 C39.115 18.1875 40.105 18.1875 41.125 18.1875 C40.63 20.6625 40.63 20.6625 40.125 23.1875 C35.835 23.1875 31.545 23.1875 27.125 23.1875 C26.795 21.5375 26.465 19.8875 26.125 18.1875 C26.785 17.5275 27.445 16.8675 28.125 16.1875 C28.52547444 13.86474823 28.8647104 11.53010643 29.125 9.1875 C26.815 9.5175 24.505 9.8475 22.125 10.1875 C22.67812735 14.21742782 23.2808062 18.20772924 24.125 22.1875 C21.15140551 23.67429725 18.46200821 23.29862605 15.1484375 23.28515625 C14.46319 23.2837413 13.7779425 23.28232635 13.07192993 23.28086853 C10.88124239 23.27526675 8.6906567 23.26271406 6.5 23.25 C5.01562648 23.24498522 3.53125135 23.24042228 2.046875 23.23632812 C-1.59378315 23.22529677 -5.23438164 23.20803099 -8.875 23.1875 C-9.205 21.8675 -9.535 20.5475 -9.875 19.1875 C-8.555 18.5275 -7.235 17.8675 -5.875 17.1875 C-6.04 16.589375 -6.205 15.99125 -6.375 15.375 C-6.875 13.1875 -6.875 13.1875 -6.875 10.1875 C-7.535 9.8575 -8.195 9.5275 -8.875 9.1875 C-8.875 6.8775 -8.875 4.5675 -8.875 2.1875 C-3.58269231 -1.0125 -3.58269231 -1.0125 0 0 Z M67.125 11.1875 C67.455 12.1775 67.785 13.1675 68.125 14.1875 C68.125 13.1975 68.125 12.2075 68.125 11.1875 C67.795 11.1875 67.465 11.1875 67.125 11.1875 Z M69.125 13.1875 C69.125 13.8475 69.125 14.5075 69.125 15.1875 C69.785 14.8575 70.445 14.5275 71.125 14.1875 C70.465 13.8575 69.805 13.5275 69.125 13.1875 Z M11.125 14.1875 C11.785 14.8475 12.445 15.5075 13.125 16.1875 C13.125 15.5275 13.125 14.8675 13.125 14.1875 C12.465 14.1875 11.805 14.1875 11.125 14.1875 Z " fill="#23175C" transform="translate(66.875,15.8125)"/>
<path d="M0 0 C0.66 0 1.32 0 2 0 C2 0.99 2 1.98 2 3 C2.99 2.67 3.98 2.34 5 2 C5.66 4.31 6.32 6.62 7 9 C9.31 9.33 11.62 9.66 14 10 C14 9.34 14 8.68 14 8 C13.34 7.34 12.68 6.68 12 6 C14.82883747 4.58558126 16.87376745 4.68099668 20 5 C21.875 7 21.875 7 23 9 C21.02 11.31 19.04 13.62 17 16 C18.98 16.66 20.96 17.32 23 18 C22.01 18.99 21.02 19.98 20 21 C23.63 23.64 27.26 26.28 31 29 C27.08428299 30.305239 25.96107003 29.32239848 22.3125 27.5625 C21.31863281 27.08941406 20.32476562 26.61632812 19.30078125 26.12890625 C18.54152344 25.75636719 17.78226563 25.38382813 17 25 C17.33 25.99 17.66 26.98 18 28 C16.68 27.67 15.36 27.34 14 27 C14.433125 27.84304687 14.86625 28.68609375 15.3125 29.5546875 C15.869375 30.65039062 16.42625 31.74609375 17 32.875 C17.556875 33.96554688 18.11375 35.05609375 18.6875 36.1796875 C20 39 20 39 20 41 C16.16013793 39.72004598 15.51848751 38.01821604 13.4765625 34.69140625 C11.75719006 32.46284179 11.75719006 32.46284179 7 31 C7 35.62 7 40.24 7 45 C5 43 5 43 4.8046875 41.0546875 C4.86979167 39.03645833 4.93489583 37.01822917 5 35 C4.01 34.67 3.02 34.34 2 34 C2 33.34 2 32.68 2 32 C1.34 32 0.68 32 0 32 C-0.0825 32.680625 -0.165 33.36125 -0.25 34.0625 C-1.22332528 37.8746907 -2.95807455 40.64070329 -5 44 C-6.54363098 39.88365073 -5.73840234 36.22903156 -5 32 C-4.34 31.01 -3.68 30.02 -3 29 C-2.29835358 27.01200182 -1.62627128 25.01301483 -1 23 C-1.66 22.34 -2.32 21.68 -3 21 C-1.329375 20.87625 -1.329375 20.87625 0.375 20.75 C4.05753944 20.42126213 4.05753944 20.42126213 5.4375 17.9375 C5.623125 17.298125 5.80875 16.65875 6 16 C5.21625 15.773125 4.4325 15.54625 3.625 15.3125 C1 14 1 14 -0.3125 11.8125 C-1.28604066 7.82983365 -1.87934042 3.75868084 0 0 Z M10 16 C14 17 14 17 14 17 Z " fill="#1A1552" transform="translate(36,23)"/>
<path d="M0 0 C5.91260345 -0.25706972 11.23918159 0.7017874 17 2 C17.18175781 2.63808594 17.36351563 3.27617188 17.55078125 3.93359375 C17.80214844 4.75988281 18.05351562 5.58617187 18.3125 6.4375 C18.67794922 7.67306641 18.67794922 7.67306641 19.05078125 8.93359375 C19.36402344 9.61550781 19.67726563 10.29742187 20 11 C20.99 11.33 21.98 11.66 23 12 C22.01 15.3 21.02 18.6 20 22 C19.01 21.34 18.02 20.68 17 20 C13.7 22.97 10.4 25.94 7 29 C6.67 28.34 6.34 27.68 6 27 C6.34933594 26.55269531 6.69867188 26.10539062 7.05859375 25.64453125 C7.51363281 25.03996094 7.96867187 24.43539062 8.4375 23.8125 C8.88996094 23.22082031 9.34242187 22.62914063 9.80859375 22.01953125 C11.18072637 19.69365399 11.60108157 17.65487095 12 15 C11.15695313 15.3609375 10.31390625 15.721875 9.4453125 16.09375 C8.34960938 16.5578125 7.25390625 17.021875 6.125 17.5 C5.03445312 17.9640625 3.94390625 18.428125 2.8203125 18.90625 C0 20 0 20 -2 20 C-1 17 -1 17 1.9375 15.5 C2.948125 15.005 3.95875 14.51 5 14 C5.66 13.01 6.32 12.02 7 11 C2.71 10.67 -1.58 10.34 -6 10 C-6 9.34 -6 8.68 -6 8 C-5.38511719 7.86722656 -4.77023437 7.73445313 -4.13671875 7.59765625 C-3.32847656 7.42105469 -2.52023438 7.24445312 -1.6875 7.0625 C-0.88699219 6.88847656 -0.08648437 6.71445312 0.73828125 6.53515625 C3.145401 6.00113841 3.145401 6.00113841 6 5 C6 4.34 6 3.68 6 3 C3.03 2.505 3.03 2.505 0 2 C0 1.34 0 0.68 0 0 Z " fill="#B02D22" transform="translate(13,34)"/>
<path d="M0 0 C5.65652337 0.57658857 11.37148036 0.36002547 17.05078125 0.32250977 C18.35015625 0.31799805 19.64953125 0.31348633 20.98828125 0.30883789 C24.1758295 0.29711896 27.3632808 0.28071196 30.55078125 0.26000977 C31.04578125 3.72500977 31.04578125 3.72500977 31.55078125 7.26000977 C30.87611816 7.25477295 30.20145508 7.24953613 29.50634766 7.24414062 C26.39616865 7.22312231 23.28600467 7.21027153 20.17578125 7.19750977 C19.11488281 7.18913086 18.05398437 7.18075195 16.9609375 7.17211914 C11.13291611 7.15424177 5.4454903 7.37452757 -0.34570312 8.03076172 C-4.07665767 8.43737341 -7.7014346 8.37898704 -11.44921875 8.26000977 C-12.44921875 7.26000977 -12.44921875 7.26000977 -12.51171875 4.19750977 C-12.49109375 3.22813477 -12.47046875 2.25875977 -12.44921875 1.26000977 C-7.77085503 -0.39691072 -4.98725102 -0.71651252 0 0 Z M-4.44921875 3.26000977 C-3.44921875 5.26000977 -3.44921875 5.26000977 -3.44921875 5.26000977 Z M8.55078125 3.26000977 C9.55078125 6.26000977 9.55078125 6.26000977 9.55078125 6.26000977 Z M11.55078125 3.26000977 C12.55078125 5.26000977 12.55078125 5.26000977 12.55078125 5.26000977 Z M16.55078125 3.26000977 C17.55078125 5.26000977 17.55078125 5.26000977 17.55078125 5.26000977 Z " fill="#97333D" transform="translate(110.44921875,39.739990234375)"/>
<path d="M0 0 C0.02707139 2.24993359 0.04642829 4.49996095 0.0625 6.75 C0.07410156 8.00296875 0.08570312 9.2559375 0.09765625 10.546875 C0.02021027 13.28536501 -0.17219185 15.41880293 -1 18 C0.32 17.67 1.64 17.34 3 17 C3.103125 16.236875 3.20625 15.47375 3.3125 14.6875 C4.07046269 11.72455494 4.58806197 10.80895352 7 9 C9.6875 7.8125 9.6875 7.8125 12 7 C11.25 11.75 11.25 11.75 9 14 C9 14.99 9 15.98 9 17 C9.598125 17.12375 10.19625 17.2475 10.8125 17.375 C13 18 13 18 16 20 C15.67 20.33 15.34 20.66 15 21 C12.64305046 20.90968426 10.28846418 20.75311872 7.9375 20.5625 C6.64714844 20.46066406 5.35679688 20.35882813 4.02734375 20.25390625 C2.52880859 20.12822266 2.52880859 20.12822266 1 20 C1 20.66 1 21.32 1 22 C-1.64 22 -4.28 22 -7 22 C-7 21.34 -7 20.68 -7 20 C-7.66 19.67 -8.32 19.34 -9 19 C-8.01 18.34 -7.02 17.68 -6 17 C-6.165 16.401875 -6.33 15.80375 -6.5 15.1875 C-7 13 -7 13 -7 10 C-7.66 9.67 -8.32 9.34 -9 9 C-9 6.69 -9 4.38 -9 2 C-3.375 -1.125 -3.375 -1.125 0 0 Z " fill="#261A66" transform="translate(67,16)"/>
<path d="M0 0 C0.33 0 0.66 0 1 0 C1.22181406 2.43695715 1.42791119 4.873526 1.625 7.3125 C1.68945312 8.00279297 1.75390625 8.69308594 1.8203125 9.40429688 C2.11802847 13.2559972 2.20763723 14.68854416 0 18 C-4.17660573 18.26518132 -7.04340734 18.31886422 -11 17 C-13.25629652 16.9709133 -15.49190079 17.06480122 -17.74609375 17.16015625 C-20.27109187 16.98073697 -21.8281292 16.26156504 -24 15 C-23.67 14.34 -23.34 13.68 -23 13 C-22.0925 13.185625 -21.185 13.37125 -20.25 13.5625 C-17.24339146 13.96723576 -15.8119538 13.82524731 -13 13 C-13.6496875 12.37351562 -14.299375 11.74703125 -14.96875 11.1015625 C-15.8040625 10.28429688 -16.639375 9.46703125 -17.5 8.625 C-18.75296875 7.40683594 -18.75296875 7.40683594 -20.03125 6.1640625 C-22 4 -22 4 -22 2 C-19.47227188 3.16664375 -17.35487294 4.45296155 -15.0625 6.0625 C-12.1570447 7.90064519 -10.38499054 8.72554131 -7 9 C-6.01 8.67 -5.02 8.34 -4 8 C-3.01 9.485 -3.01 9.485 -2 11 C-2.33 9.35 -2.66 7.7 -3 6 C-2.01 6 -1.02 6 0 6 C0 4.02 0 2.04 0 0 Z " fill="#21185B" transform="translate(31,18)"/>
<path d="M0 0 C2.4375 0.1875 2.4375 0.1875 5 1 C6.3125 3.0625 6.3125 3.0625 7 5 C5.68 4.67 4.36 4.34 3 4 C3.433125 4.84304687 3.86625 5.68609375 4.3125 6.5546875 C4.869375 7.65039062 5.42625 8.74609375 6 9.875 C6.556875 10.96554688 7.11375 12.05609375 7.6875 13.1796875 C9 16 9 16 9 18 C5.16013793 16.72004598 4.51848751 15.01821604 2.4765625 11.69140625 C0.75719006 9.46284179 0.75719006 9.46284179 -4 8 C-4 12.62 -4 17.24 -4 22 C-6 20 -6 20 -6.1953125 18.0546875 C-6.13020833 16.03645833 -6.06510417 14.01822917 -6 12 C-6.99 11.67 -7.98 11.34 -9 11 C-9 10.34 -9 9.68 -9 9 C-9.66 9 -10.32 9 -11 9 C-11.0825 9.680625 -11.165 10.36125 -11.25 11.0625 C-12.22332528 14.8746907 -13.95807455 17.64070329 -16 21 C-17.54363098 16.88365073 -16.73840234 13.22903156 -16 9 C-14.39911152 6.59866729 -12.74271938 4.297221 -11 2 C-11 3.65 -11 5.3 -11 7 C-10.30132812 6.98839844 -9.60265625 6.97679687 -8.8828125 6.96484375 C-7.97273438 6.95582031 -7.06265625 6.94679688 -6.125 6.9375 C-5.22007813 6.92589844 -4.31515625 6.91429687 -3.3828125 6.90234375 C-1 7 -1 7 1 8 C0.34 5.69 -0.32 3.38 -1 1 C-0.67 0.67 -0.34 0.34 0 0 Z " fill="#080A2A" transform="translate(47,46)"/>
<path d="M0 0 C0.66 0 1.32 0 2 0 C2 0.99 2 1.98 2 3 C2.99 2.67 3.98 2.34 5 2 C5.66 4.31 6.32 6.62 7 9 C9.31 9.33 11.62 9.66 14 10 C14 9.34 14 8.68 14 8 C13.34 7.34 12.68 6.68 12 6 C14.70879335 4.64560332 17.00933268 4.93498549 20 5 C20.33 5.66 20.66 6.32 21 7 C20.0625 9.125 20.0625 9.125 19 11 C18.34 11 17.68 11 17 11 C17 11.99 17 12.98 17 14 C11.10202046 15.37162315 8.31119341 14.33535619 3.1875 11.375 C2.465625 10.92125 1.74375 10.4675 1 10 C1.33 9.01 1.66 8.02 2 7 C1.01 7 0.02 7 -1 7 C-0.67 4.69 -0.34 2.38 0 0 Z " fill="#251867" transform="translate(36,23)"/>
<path d="M0 0 C0.66 0 1.32 0 2 0 C2.66 4.29 3.32 8.58 4 13 C4.66 12.34 5.32 11.68 6 11 C6 15.29 6 19.58 6 24 C5.01 24 4.02 24 3 24 C2.34 21.03 1.68 18.06 1 15 C0.01 15 -0.98 15 -2 15 C-1.34 16.65 -0.68 18.3 0 20 C-0.99 20 -1.98 20 -3 20 C-3 19.01 -3 18.02 -3 17 C-3.5775 17.350625 -4.155 17.70125 -4.75 18.0625 C-7.35801776 19.14917407 -8.39417629 18.93065133 -11 18 C-10.67 17.34 -10.34 16.68 -10 16 C-9.01 16.33 -8.02 16.66 -7 17 C-7.30035156 16.32453125 -7.60070312 15.6490625 -7.91015625 14.953125 C-8.29042969 14.06109375 -8.67070312 13.1690625 -9.0625 12.25 C-9.44535156 11.36828125 -9.82820313 10.4865625 -10.22265625 9.578125 C-11.04600008 6.84743691 -10.9773992 5.63098653 -10 3 C-6 8.75 -6 8.75 -6 11 C-5.38125 11.309375 -4.7625 11.61875 -4.125 11.9375 C-2.75 12.625 -1.375 13.3125 0 14 C0 9.38 0 4.76 0 0 Z " fill="#100C37" transform="translate(30,9)"/>
<path d="M0 0 C0.33 2.31 0.66 4.62 1 7 C-6.59 7 -14.18 7 -22 7 C-21.67 5.02 -21.34 3.04 -21 1 C-20.27554688 1.01160156 -19.55109375 1.02320313 -18.8046875 1.03515625 C-12.44346404 1.09452767 -6.29921258 0 0 0 Z M-19 3 C-18 5 -18 5 -18 5 Z M-14 3 C-13 5 -13 5 -13 5 Z " fill="#983A3F" transform="translate(141,40)"/>
<path d="M0 0 C0.66 0 1.32 0 2 0 C2 2.97 2 5.94 2 9 C3.3921875 7.824375 3.3921875 7.824375 4.8125 6.625 C6.83035727 4.92103164 8.78775545 3.4748297 11 2 C11.66 1.34 12.32 0.68 13 0 C13.66 0 14.32 0 15 0 C15 0.66 15 1.32 15 2 C14.34 2 13.68 2 13 2 C12.938125 2.598125 12.87625 3.19625 12.8125 3.8125 C11.66445318 6.90339529 9.89452948 7.5880344 7 9 C6.34 9 5.68 9 5 9 C4.67 11.31 4.34 13.62 4 16 C2.35 16.33 0.7 16.66 -1 17 C-0.96744792 14.98177083 -0.93489583 12.96354167 -0.90234375 10.9453125 C-0.87350758 8.91814596 -0.87350758 8.91814596 -2 7 C-1.34 7 -0.68 7 0 7 C0 4.69 0 2.38 0 0 Z " fill="#1E1652" transform="translate(67,17)"/>
<path d="M0 0 C0.66 0.33 1.32 0.66 2 1 C2.625 3.5625 2.625 3.5625 3 6 C5.64 6.33 8.28 6.66 11 7 C10.67 8.98 10.34 10.96 10 13 C7.03 13 4.06 13 1 13 C0 10 0 10 0 7 C-0.66 7 -1.32 7 -2 7 C-1.125 1.125 -1.125 1.125 0 0 Z " fill="#241766" transform="translate(130,25)"/>
<path d="M0 0 C2.64 0.33 5.28 0.66 8 1 C6.515 2.485 6.515 2.485 5 4 C5.33 4.99 5.66 5.98 6 7 C6.99 7.33 7.98 7.66 9 8 C8.625 9.9375 8.625 9.9375 8 12 C4.78548731 13.60725635 1.56387464 13.05748185 -2 13 C-1.67 12.01 -1.34 11.02 -1 10 C0.65 10 2.3 10 4 10 C4 9.34 4 8.68 4 8 C2.68 8.33 1.36 8.66 0 9 C0 8.34 0 7.68 0 7 C0.66 6.67 1.32 6.34 2 6 C1.01 5.01 0.02 4.02 -1 3 C-0.67 2.01 -0.34 1.02 0 0 Z " fill="#281C65" transform="translate(117,23)"/>
<path d="M0 0 C1.32 0.33 2.64 0.66 4 1 C4 1.66 4 2.32 4 3 C4.99 2.67 5.98 2.34 7 2 C9.6875 3.3125 9.6875 3.3125 12 5 C12 5.66 12 6.32 12 7 C10.741875 7.020625 9.48375 7.04125 8.1875 7.0625 C7.47980469 7.07410156 6.77210937 7.08570313 6.04296875 7.09765625 C4 7 4 7 1 6 C-1.25629652 5.9709133 -3.49190079 6.06480122 -5.74609375 6.16015625 C-8.27109187 5.98073697 -9.8281292 5.26156504 -12 4 C-11.67 3.34 -11.34 2.68 -11 2 C-10.0925 2.185625 -9.185 2.37125 -8.25 2.5625 C-5.3198051 2.95694931 -3.69624489 3.09847014 -1 2 C-0.67 1.34 -0.34 0.68 0 0 Z " fill="#3A235B" transform="translate(19,29)"/>
<path d="M0 0 C2.31 0 4.62 0 7 0 C7.25 2.8125 7.25 2.8125 7 6 C5 7.875 5 7.875 3 9 C3.33 9.66 3.66 10.32 4 11 C3.01 11.33 2.02 11.66 1 12 C-0.24546405 9.50907189 0.2232422 8.58919267 1 6 C-1.31 6 -3.62 6 -6 6 C-4.6875 4.5 -4.6875 4.5 -3 3 C-2.01 3 -1.02 3 0 3 C0 2.01 0 1.02 0 0 Z " fill="#B83529" transform="translate(21,37)"/>
<path d="M0 0 C-0.33 0.33 -0.66 0.66 -1 1 C0.65 1.33 2.3 1.66 4 2 C3.979375 2.78375 3.95875 3.5675 3.9375 4.375 C3.81315937 6.98114961 3.81315937 6.98114961 5 9 C3.3767313 9.6708712 1.75132422 10.33657029 0.125 11 C-0.77992187 11.37125 -1.68484375 11.7425 -2.6171875 12.125 C-5 13 -5 13 -7 13 C-6 10 -6 10 -3.0625 8.5 C-2.051875 8.005 -1.04125 7.51 0 7 C0.66 6.01 1.32 5.02 2 4 C-2.29 3.67 -6.58 3.34 -11 3 C-11 2.34 -11 1.68 -11 1 C-9.5437328 0.63743142 -8.08488815 0.28520207 -6.625 -0.0625 C-5.40683594 -0.35833984 -5.40683594 -0.35833984 -4.1640625 -0.66015625 C-2 -1 -2 -1 0 0 Z " fill="#6F1B1F" transform="translate(18,41)"/>
<path d="M0 0 C0.99 0.33 1.98 0.66 3 1 C3 1.66 3 2.32 3 3 C3.763125 2.814375 4.52625 2.62875 5.3125 2.4375 C8 2 8 2 11 3 C11 2.34 11 1.68 11 1 C17.6 1 24.2 1 31 1 C31.33 1.99 31.66 2.98 32 4 C21.77 4 11.54 4 1 4 C0.67 2.68 0.34 1.36 0 0 Z " fill="#1C1548" transform="translate(57,35)"/>
<path d="M0 0 C2.375 0.25 2.375 0.25 5 1 C6.3125 3.0625 6.3125 3.0625 7 5 C5.68 4.67 4.36 4.34 3 4 C3.433125 4.84304687 3.86625 5.68609375 4.3125 6.5546875 C4.869375 7.65039062 5.42625 8.74609375 6 9.875 C6.556875 10.96554688 7.11375 12.05609375 7.6875 13.1796875 C9 16 9 16 9 18 C4.97449681 16.6581656 4.11714364 14.5772427 2 11 C2 10.34 2 9.68 2 9 C1.34 8.67 0.68 8.34 0 8 C0 5.33333333 0 2.66666667 0 0 Z " fill="#131040" transform="translate(47,46)"/>
<path d="M0 0 C0.66 0.33 1.32 0.66 2 1 C1.814375 1.78375 1.62875 2.5675 1.4375 3.375 C0.74037734 5.97089775 0.74037734 5.97089775 2 8 C2 8.99 2 9.98 2 11 C0.35 11 -1.3 11 -3 11 C-3 12.98 -3 14.96 -3 17 C-3.33 17 -3.66 17 -4 17 C-4.33 12.38 -4.66 7.76 -5 3 C-6.65 2.67 -8.3 2.34 -10 2 C-10 1.67 -10 1.34 -10 1 C-7 1 -4 1 -1 1 C-0.67 0.67 -0.34 0.34 0 0 Z " fill="#19104F" transform="translate(92,15)"/>
<path d="M0 0 C0.33 2.31 0.66 4.62 1 7 C-4.28497409 7.44041451 -4.28497409 7.44041451 -7 7 C-9.5 4.5 -9.5 4.5 -11 2 C-7.12315913 0.80712589 -4.08378077 0 0 0 Z " fill="#A04E52" transform="translate(141,40)"/>
<path d="M0 0 C2.625 0.625 2.625 0.625 5 2 C5.8125 4.125 5.8125 4.125 6 6 C5.34 6 4.68 6 4 6 C3.67 7.98 3.34 9.96 3 12 C2.67 10.68 2.34 9.36 2 8 C1.01 8.33 0.02 8.66 -1 9 C-1.66 8.67 -2.32 8.34 -3 8 C-3.1875 5.125 -3.1875 5.125 -3 2 C-2.01 1.34 -1.02 0.68 0 0 Z " fill="#20185F" transform="translate(39,45)"/>
<path d="M0 0 C5.91260345 -0.25706972 11.23918159 0.7017874 17 2 C17.33 3.98 17.66 5.96 18 8 C17.01 8 16.02 8 15 8 C15 6.35 15 4.7 15 3 C12.69 3 10.38 3 8 3 C8 3.99 8 4.98 8 6 C6.68 5.67 5.36 5.34 4 5 C4.66 5 5.32 5 6 5 C6 4.34 6 3.68 6 3 C3.03 2.505 3.03 2.505 0 2 C0 1.34 0 0.68 0 0 Z " fill="#923C44" transform="translate(13,34)"/>
<path d="M0 0 C2.50085276 1.15423973 4.6500827 2.4426095 6.9375 4 C9.60894361 5.74461623 12.00723301 6.9437293 15 8 C15 8.66 15 9.32 15 10 C12.64734457 10.84023408 11.45524918 11.18098021 9.09375 10.2421875 C6.80446013 8.8839894 5.12237523 7.38837844 3.25 5.5 C2.63640625 4.8915625 2.0228125 4.283125 1.390625 3.65625 C0 2 0 2 0 0 Z " fill="#201953" transform="translate(9,20)"/>
<path d="M0 0 C3.74879638 1.24959879 5.20967538 3.20967538 8 6 C10.28359387 7.75186307 12.62539526 9.3703693 15 11 C11.26438587 12.24520471 10.40650136 11.60813836 6.9375 9.9375 C3.34066646 8.0684031 2.23226027 7.46452053 0.375 3.75 C0 1 0 1 0 0 Z " fill="#1B1842" transform="translate(52,41)"/>
<path d="M0 0 C0.99 0.33 1.98 0.66 3 1 C3 1.66 3 2.32 3 3 C3.66 3 4.32 3 5 3 C3.55218207 6.44428265 1.72305391 8.36130962 -1.125 10.75 C-2.21167969 11.67039062 -2.21167969 11.67039062 -3.3203125 12.609375 C-3.87460937 13.06828125 -4.42890625 13.5271875 -5 14 C-5.33 13.34 -5.66 12.68 -6 12 C-5.65066406 11.55269531 -5.30132813 11.10539062 -4.94140625 10.64453125 C-2.31101372 7.14976044 -0.40792858 4.48721443 0 0 Z " fill="#712421" transform="translate(25,49)"/>
<path d="M0 0 C0.33 0 0.66 0 1 0 C0.502374 6.27008755 -0.31424515 12.24297525 -3 18 C-3.66 18.33 -4.32 18.66 -5 19 C-4.8858134 17.06183265 -4.75826577 15.12444901 -4.625 13.1875 C-4.55539063 12.10855469 -4.48578125 11.02960937 -4.4140625 9.91796875 C-4 7 -4 7 -2 4 C-1.31822584 2.67432801 -0.64808564 1.34246312 0 0 Z " fill="#412147" transform="translate(35,48)"/>
<path d="M0 0 C0.99 0 1.98 0 3 0 C3 0.66 3 1.32 3 2 C4.98 1.67 6.96 1.34 9 1 C4.25 5 4.25 5 2 5 C0.68517129 5.38802801 -0.62707362 5.78485502 -1.9375 6.1875 C-4.08984375 6.75390625 -4.08984375 6.75390625 -6 7 C-8 5.625 -8 5.625 -9 4 C-7.88625 3.896875 -6.7725 3.79375 -5.625 3.6875 C-4.42875 3.460625 -3.2325 3.23375 -2 3 C-1.34 2.01 -0.68 1.02 0 0 Z " fill="#34254A" transform="translate(42,40)"/>
<path d="M0 0 C6.4 -0.49230769 6.4 -0.49230769 9.4375 2 C10.2109375 2.99 10.2109375 2.99 11 4 C9.0625 4.5625 9.0625 4.5625 7 5 C6.67 4.67 6.34 4.34 6 4 C4.32457024 4.28604898 2.65614657 4.61781233 1 5 C0.67 3.35 0.34 1.7 0 0 Z " fill="#A84852" transform="translate(100,41)"/>
<path d="M0 0 C0.99 1.485 0.99 1.485 2 3 C2.66 2.34 3.32 1.68 4 1 C4 5.29 4 9.58 4 14 C3.01 14 2.02 14 1 14 C-0.20568053 9.32798795 -0.09382426 4.78503708 0 0 Z " fill="#120946" transform="translate(32,19)"/>
<path d="M0 0 C7.92 0 15.84 0 24 0 C24 0.33 24 0.66 24 1 C18.39 1 12.78 1 7 1 C6.67 2.65 6.34 4.3 6 6 C5.67 4.68 5.34 3.36 5 2 C3.35 1.67 1.7 1.34 0 1 C0 0.67 0 0.34 0 0 Z " fill="#7D323E" transform="translate(113,40)"/>
<path d="M0 0 C0.99 0.66 1.98 1.32 3 2 C3.1875 4.625 3.1875 4.625 3 7 C0 8 0 8 -3 7 C-3.6875 4.9375 -3.6875 4.9375 -4 3 C-2.68 2.01 -1.36 1.02 0 0 Z M-1 4 C-0.34 4.66 0.32 5.32 1 6 C1 5.34 1 4.68 1 4 C0.34 4 -0.32 4 -1 4 Z " fill="#1C1258" transform="translate(79,26)"/>
<path d="M0 0 C1.32 0 2.64 0 4 0 C3.67 1.98 3.34 3.96 3 6 C0.03 6 -2.94 6 -6 6 C-6 5.01 -6 4.02 -6 3 C-3.69 3.33 -1.38 3.66 1 4 C0.67 2.68 0.34 1.36 0 0 Z " fill="#32215B" transform="translate(137,32)"/>
<path d="M0 0 C3.3 0 6.6 0 10 0 C8.1875 2 8.1875 2 6 4 C4 4 2 4 0 4 C0 2.68 0 1.36 0 0 Z " fill="#A9444E" transform="translate(120,41)"/>
<path d="M0 0 C0.99 0 1.98 0 3 0 C3 0.66 3 1.32 3 2 C2.34 2 1.68 2 1 2 C0.938125 2.598125 0.87625 3.19625 0.8125 3.8125 C0 6 0 6 -2.375 7.8125 C-5 9 -5 9 -8 8 C-5.74259377 5.66475218 -3.7194239 3.81294927 -1 2 C-0.67 1.34 -0.34 0.68 0 0 Z " fill="#170F44" transform="translate(79,17)"/>
<path d="M0 0 C0 0.66 0 1.32 0 2 C-1.30144802 3.04115841 -2.63838689 4.03886134 -4 5 C-6.28728734 6.83883881 -6.28728734 6.83883881 -6.125 9.625 C-6.063125 10.800625 -6.063125 10.800625 -6 12 C-6.99 11.67 -7.98 11.34 -9 11 C-8.75675684 6.7837853 -8.62862242 4.64516511 -5.625 1.5625 C-3 0 -3 0 0 0 Z " fill="#18124C" transform="translate(135,21)"/>
<path d="M0 0 C2.31 0 4.62 0 7 0 C7.33 1.32 7.66 2.64 8 4 C5.36 3.67 2.72 3.34 0 3 C0 2.01 0 1.02 0 0 Z " fill="#BD4B49" transform="translate(132,42)"/>
<path d="M0 0 C1.65 0 3.3 0 5 0 C5.33 1.98 5.66 3.96 6 6 C4.68 5.34 3.36 4.68 2 4 C2 3.34 2 2.68 2 2 C1.34 2 0.68 2 0 2 C-0.33 3.65 -0.66 5.3 -1 7 C-2 4 -2 4 -1.0625 1.8125 C-0.5365625 0.9153125 -0.5365625 0.9153125 0 0 Z " fill="#120F43" transform="translate(36,53)"/>
<path d="M0 0 C0.99 0.33 1.98 0.66 3 1 C-0.75 6.75 -0.75 6.75 -3 9 C-3.99 8.67 -4.98 8.34 -6 8 C-5.01 7.67 -4.02 7.34 -3 7 C-3 6.01 -3 5.02 -3 4 C-2.34 4 -1.68 4 -1 4 C-0.67 2.68 -0.34 1.36 0 0 Z " fill="#151241" transform="translate(56,30)"/>
<path d="M0 0 C1.65 0 3.3 0 5 0 C5.33 1.32 5.66 2.64 6 4 C4.35 4.66 2.7 5.32 1 6 C-0.0625 4.125 -0.0625 4.125 -1 2 C-0.67 1.34 -0.34 0.68 0 0 Z M2 1 C2.33 1.99 2.66 2.98 3 4 C3 3.01 3 2.02 3 1 C2.67 1 2.34 1 2 1 Z " fill="#1A0F4C" transform="translate(132,26)"/>
<path d="M0 0 C3.43595166 1.52708963 6.11912454 3.59927045 9 6 C8.34 6 7.68 6 7 6 C6.67 6.66 6.34 7.32 6 8 C4.99403703 7.0479279 3.99538437 6.08812654 3 5.125 C2.443125 4.59132813 1.88625 4.05765625 1.3125 3.5078125 C0 2 0 2 0 0 Z " fill="#21202D" transform="translate(9,20)"/>
<path d="M0 0 C1.81325551 0.11351517 3.62563357 0.24112961 5.4375 0.375 C6.95150391 0.47941406 6.95150391 0.47941406 8.49609375 0.5859375 C9.73552734 0.79089844 9.73552734 0.79089844 11 1 C11.33 1.66 11.66 2.32 12 3 C3.42857143 4.42857143 3.42857143 4.42857143 0 2 C0 1.34 0 0.68 0 0 Z " fill="#581928" transform="translate(7,31)"/>
<path d="M0 0 C0 0.99 0 1.98 0 3 C-2.64 3 -5.28 3 -8 3 C-7.67 2.01 -7.34 1.02 -7 0 C-4.3333581 -1.33332095 -2.83319697 -0.67102033 0 0 Z " fill="#261B64" transform="translate(140,23)"/>
<path d="M0 0 C1.4540625 0.0309375 1.4540625 0.0309375 2.9375 0.0625 C2.6075 0.7225 2.2775 1.3825 1.9375 2.0625 C0.9475 2.0625 -0.0425 2.0625 -1.0625 2.0625 C-1.7225 4.3725 -2.3825 6.6825 -3.0625 9.0625 C-3.3925 9.0625 -3.7225 9.0625 -4.0625 9.0625 C-4.16015625 2.91015625 -4.16015625 2.91015625 -4.0625 1.0625 C-3.0625 0.0625 -3.0625 0.0625 0 0 Z " fill="#120C47" transform="translate(46.0625,20.9375)"/>
<path d="M0 0 C0 1.98 0 3.96 0 6 C-4.875 3.375 -4.875 3.375 -6 0 C-3.50907189 -1.24546405 -2.58919267 -0.7767578 0 0 Z " fill="#261A68" transform="translate(55,19)"/>
<path d="M0 0 C0.99 0.33 1.98 0.66 3 1 C2.01 4.3 1.02 7.6 0 11 C-0.99 10.01 -1.98 9.02 -3 8 C-3 7.34 -3 6.68 -3 6 C-2.01 6 -1.02 6 0 6 C0 4.02 0 2.04 0 0 Z " fill="#923E46" transform="translate(33,45)"/>
<path d="M0 0 C1.5 1.375 1.5 1.375 3 3 C3 3.66 3 4.32 3 5 C3.66 5.33 4.32 5.66 5 6 C5 7.32 5 8.64 5 10 C3.0625 9.5 3.0625 9.5 1 8 C0.31209578 5.30341548 0.18053536 2.7982981 0 0 Z " fill="#1E1349" transform="translate(111,28)"/>
<path d="M0 0 C0.99 0.66 1.98 1.32 3 2 C1.35 2.66 -0.3 3.32 -2 4 C-2 4.99 -2 5.98 -2 7 C-3.32 6.67 -4.64 6.34 -6 6 C-5.8125 4.125 -5.8125 4.125 -5 2 C-2.625 0.625 -2.625 0.625 0 0 Z " fill="#1B164B" transform="translate(64,15)"/>
<path d="M0 0 C0.33 0 0.66 0 1 0 C2.125 5.625 2.125 5.625 1 9 C0.7834375 10.299375 0.7834375 10.299375 0.5625 11.625 C0.2840625 12.800625 0.2840625 12.800625 0 14 C-0.99 14.495 -0.99 14.495 -2 15 C-1.34 10.05 -0.68 5.1 0 0 Z " fill="#20153D" transform="translate(142,23)"/>
<path d="M0 0 C2.72426311 2.35277269 3.8141763 4.62496331 5 8 C4.01 8.33 3.02 8.66 2 9 C0.50178941 5.62902617 0 3.79557881 0 0 Z " fill="#0E0D1C" transform="translate(19,12)"/>
<path d="M0 0 C0.66 0.99 1.32 1.98 2 3 C1.25 6.125 1.25 6.125 0 9 C-0.99 9.495 -0.99 9.495 -2 10 C-1.54177532 6.53058454 -1.10868317 3.32604951 0 0 Z " fill="#100A24" transform="translate(32,57)"/>
<path d="M0 0 C0.45375 0.474375 0.9075 0.94875 1.375 1.4375 C2.93258204 3.09027808 2.93258204 3.09027808 5 4 C5.33 4.66 5.66 5.32 6 6 C4.02 6 2.04 6 0 6 C-1.24546405 3.50907189 -0.7767578 2.58919267 0 0 Z " fill="#A23C3E" transform="translate(99,42)"/>
<path d="M0 0 C2.31 0 4.62 0 7 0 C7 1.32 7 2.64 7 4 C6.34 3.67 5.68 3.34 5 3 C4.01 3 3.02 3 2 3 C1.34 3 0.68 3 0 3 C0 2.01 0 1.02 0 0 Z " fill="#B93D33" transform="translate(21,37)"/>
<path d="M0 0 C-0.33 1.65 -0.66 3.3 -1 5 C-2.65 5.33 -4.3 5.66 -6 6 C-6 4 -6 4 -4.125 1.875 C-2 0 -2 0 0 0 Z " fill="#B9352E" transform="translate(34,46)"/>
<path d="M0 0 C1.98 0.99 3.96 1.98 6 3 C5.67 3.66 5.34 4.32 5 5 C3.35 4.67 1.7 4.34 0 4 C0 2.68 0 1.36 0 0 Z " fill="#B13137" transform="translate(129,42)"/>
<path d="M0 0 C2.64 0 5.28 0 8 0 C3.375 4 3.375 4 0 4 C0 2.68 0 1.36 0 0 Z " fill="#27245F" transform="translate(43,41)"/>
<path d="M0 0 C2 1 4 2 6 3 C6.33 2.01 6.66 1.02 7 0 C7 1.32 7 2.64 7 4 C5.35 4.33 3.7 4.66 2 5 C2 4.01 2 3.02 2 2 C1.34 2 0.68 2 0 2 C0 1.34 0 0.68 0 0 Z " fill="#100C3B" transform="translate(24,20)"/>
<path d="" fill="#2B2B2B" transform="translate(0,0)"/>
<path d="" fill="#15002B" transform="translate(0,0)"/>
<path d="" fill="#000055" transform="translate(0,0)"/>
</svg>
